<?xml version="1.0" encoding="UTF-8" standalone="no"?>
<!-- Created with Inkscape (http://www.inkscape.org/) -->

<svg
   xmlns:dc="http://purl.org/dc/elements/1.1/"
   xmlns:cc="http://creativecommons.org/ns#"
   xmlns:rdf="http://www.w3.org/1999/02/22-rdf-syntax-ns#"
   xmlns:svg="http://www.w3.org/2000/svg"
   xmlns="http://www.w3.org/2000/svg"
   xmlns:sodipodi="http://sodipodi.sourceforge.net/DTD/sodipodi-0.dtd"
   xmlns:inkscape="http://www.inkscape.org/namespaces/inkscape"
   width="210mm"
   height="297mm"
   viewBox="0 0 744.09448819 1052.3622047"
   id="svg4142"
   version="1.1"
   inkscape:version="0.91 r13725"
   sodipodi:docname="egg-crack3.svg">
  <defs
     id="defs4144" />
  <sodipodi:namedview
     id="base"
     pagecolor="#ffffff"
     bordercolor="#666666"
     borderopacity="1.0"
     inkscape:pageopacity="0.0"
     inkscape:pageshadow="2"
     inkscape:zoom="0.57"
     inkscape:cx="226.92582"
     inkscape:cy="515.42488"
     inkscape:document-units="px"
     inkscape:current-layer="layer1"
     showgrid="false"
     inkscape:window-width="851"
     inkscape:window-height="691"
     inkscape:window-x="416"
     inkscape:window-y="0"
     inkscape:window-maximized="0" />
  <metadata
     id="metadata4147">
    <rdf:RDF>
      <cc:Work
         rdf:about="">
        <dc:format>image/svg+xml</dc:format>
        <dc:type
           rdf:resource="http://purl.org/dc/dcmitype/StillImage" />
        <dc:title></dc:title>
      </cc:Work>
    </rdf:RDF>
  </metadata>
  <g
     inkscape:label="Layer 1"
     inkscape:groupmode="layer"
     id="layer1">
    <path
       style="opacity:1;fill:#ffff94;fill-opacity:1;fill-rule:evenodd;stroke:#000000;stroke-width:9.80000019;stroke-linecap:butt;stroke-linejoin:round;stroke-miterlimit:4;stroke-dasharray:none;stroke-dashoffset:0;stroke-opacity:1"
       id="path4694"
       sodipodi:type="arc"
       sodipodi:cx="338.40982"
       sodipodi:cy="537.71448"
       sodipodi:rx="237.46606"
       sodipodi:ry="284.62833"
       sodipodi:start="0"
       sodipodi:end="6.2810464"
       d="M 575.87589,537.71448 A 237.46606,284.62833 0 0 1 338.5368,822.34276 237.46606,284.62833 0 0 1 100.94389,538.01887 237.46606,284.62833 0 0 1 338.02888,253.08652 237.46606,284.62833 0 0 1 575.87534,537.10568"
       sodipodi:open="true" />
    <path
       style="fill:#33cc33;fill-opacity:1;fill-rule:evenodd;stroke:#000000;stroke-width:0;stroke-linecap:butt;stroke-linejoin:miter;stroke-miterlimit:4;stroke-dasharray:none;stroke-opacity:1"
       id="path4700"
       sodipodi:type="arc"
       sodipodi:cx="260.43436"
       sodipodi:cy="355.31729"
       sodipodi:rx="52.126694"
       sodipodi:ry="52.126686"
       sodipodi:start="0"
       sodipodi:end="6.2743948"
       d="m 312.56105,355.31729 a 52.126694,52.126686 0 0 1 -52.01214,52.12656 52.126694,52.126686 0 0 1 -52.24074,-51.89745 52.126694,52.126686 0 0 1 51.78252,-52.35466 52.126694,52.126686 0 0 1 52.46835,51.66734"
       sodipodi:open="true" />
    <path
       style="fill:#33cc33;fill-opacity:1;fill-rule:evenodd;stroke:#000000;stroke-width:0;stroke-linecap:butt;stroke-linejoin:miter;stroke-miterlimit:4;stroke-dasharray:none;stroke-opacity:1"
       id="path4700-8"
       sodipodi:type="arc"
       sodipodi:cx="413.44312"
       sodipodi:cy="329.50644"
       sodipodi:rx="28.13187"
       sodipodi:ry="30.614092"
       sodipodi:start="0"
       sodipodi:end="6.2743948"
       d="m 441.57499,329.50644 a 28.13187,30.614092 0 0 1 -28.07005,30.61402 28.13187,30.614092 0 0 1 -28.19342,-30.47946 28.13187,30.614092 0 0 1 27.94613,-30.74799 28.13187,30.614092 0 0 1 28.31625,30.34432"
       sodipodi:open="true" />
    <path
       style="fill:#33cc33;fill-opacity:1;fill-rule:evenodd;stroke:#000000;stroke-width:0;stroke-linecap:butt;stroke-linejoin:miter;stroke-miterlimit:4;stroke-dasharray:none;stroke-opacity:1"
       id="path4700-5"
       sodipodi:type="arc"
       sodipodi:cx="325.99872"
       sodipodi:cy="645.27759"
       sodipodi:rx="41.370396"
       sodipodi:ry="38.888165"
       sodipodi:start="0"
       sodipodi:end="6.2743948"
       d="m 367.36911,645.27759 a 41.370396,38.888165 0 0 1 -41.27948,38.88807 41.370396,38.888165 0 0 1 -41.46091,-38.71715 41.370396,38.888165 0 0 1 41.09725,-39.05824 41.370396,38.888165 0 0 1 41.64155,38.54548"
       sodipodi:open="true" />
    <path
       style="fill:#33cc33;fill-opacity:1;fill-rule:evenodd;stroke:#000000;stroke-width:0;stroke-linecap:butt;stroke-linejoin:miter;stroke-miterlimit:4;stroke-dasharray:none;stroke-opacity:1"
       id="path4700-81"
       sodipodi:type="arc"
       sodipodi:cx="286.81985"
       sodipodi:cy="503.76331"
       sodipodi:rx="40.542984"
       sodipodi:ry="42.197796"
       sodipodi:start="0"
       sodipodi:end="6.2743948"
       d="m 327.36284,503.76331 a 40.542984,42.197796 0 0 1 -40.45389,42.19769 40.542984,42.197796 0 0 1 -40.63169,-42.01222 40.542984,42.197796 0 0 1 40.2753,-42.38235 40.542984,42.197796 0 0 1 40.80871,41.82594"
       sodipodi:open="true" />
    <path
       style="fill:#33cc33;fill-opacity:1;fill-rule:evenodd;stroke:#000000;stroke-width:0;stroke-linecap:butt;stroke-linejoin:miter;stroke-miterlimit:4;stroke-dasharray:none;stroke-opacity:1"
       id="path4700-4"
       sodipodi:type="arc"
       sodipodi:cx="176.97371"
       sodipodi:cy="442.17477"
       sodipodi:rx="28.13187"
       sodipodi:ry="30.614092"
       sodipodi:start="0"
       sodipodi:end="6.2743948"
       d="m 205.10558,442.17477 a 28.13187,30.614092 0 0 1 -28.07005,30.61402 28.13187,30.614092 0 0 1 -28.19342,-30.47946 28.13187,30.614092 0 0 1 27.94613,-30.74798 28.13187,30.614092 0 0 1 28.31625,30.34431"
       sodipodi:open="true" />
    <path
       style="fill:#33cc33;fill-opacity:1;fill-rule:evenodd;stroke:#000000;stroke-width:0;stroke-linecap:butt;stroke-linejoin:miter;stroke-miterlimit:4;stroke-dasharray:none;stroke-opacity:1"
       id="path4700-83"
       sodipodi:type="arc"
       sodipodi:cx="187.82159"
       sodipodi:cy="564.19153"
       sodipodi:rx="40.542988"
       sodipodi:ry="47.162247"
       sodipodi:start="0"
       sodipodi:end="6.2743948"
       d="m 228.36458,564.19153 a 40.542988,47.162247 0 0 1 -40.45389,47.16213 40.542988,47.162247 0 0 1 -40.63169,-46.95484 40.542988,47.162247 0 0 1 40.2753,-47.36851 40.542988,47.162247 0 0 1 40.80872,46.74664"
       sodipodi:open="true" />
    <path
       style="fill:#33cc33;fill-opacity:1;fill-rule:evenodd;stroke:#000000;stroke-width:0;stroke-linecap:butt;stroke-linejoin:miter;stroke-miterlimit:4;stroke-dasharray:none;stroke-opacity:1"
       id="path4700-0"
       sodipodi:type="arc"
       sodipodi:cx="355.48672"
       sodipodi:cy="405.59006"
       sodipodi:rx="21.114328"
       sodipodi:ry="21.842165"
       sodipodi:start="0"
       sodipodi:end="6.2743948"
       d="m 376.60105,405.59006 a 21.114328,21.842165 0 0 1 -21.06792,21.84211 21.114328,21.842165 0 0 1 -21.16053,-21.74611 21.114328,21.842165 0 0 1 20.97492,-21.93769 21.114328,21.842165 0 0 1 21.25272,21.64969"
       sodipodi:open="true" />
    <path
       style="fill:#33cc33;fill-opacity:1;fill-rule:evenodd;stroke:#000000;stroke-width:0;stroke-linecap:butt;stroke-linejoin:miter;stroke-miterlimit:4;stroke-dasharray:none;stroke-opacity:1"
       id="path4700-48"
       sodipodi:type="arc"
       sodipodi:cx="526.13983"
       sodipodi:cy="511.67697"
       sodipodi:rx="21.512609"
       sodipodi:ry="21.512609"
       sodipodi:start="0"
       sodipodi:end="6.2743948"
       d="m 547.65244,511.67697 a 21.512609,21.512609 0 0 1 -21.46533,21.51256 21.512609,21.512609 0 0 1 -21.55968,-21.41801 21.512609,21.512609 0 0 1 21.37057,-21.60669 21.512609,21.512609 0 0 1 21.65361,21.32304"
       sodipodi:open="true" />
    <path
       style="fill:#33cc33;fill-opacity:1;fill-rule:evenodd;stroke:#000000;stroke-width:0;stroke-linecap:butt;stroke-linejoin:miter;stroke-miterlimit:4;stroke-dasharray:none;stroke-opacity:1"
       id="path4700-56"
       sodipodi:type="arc"
       sodipodi:cx="472.44992"
       sodipodi:cy="426.84189"
       sodipodi:rx="38.888168"
       sodipodi:ry="42.197796"
       sodipodi:start="0"
       sodipodi:end="6.2743948"
       d="m 511.33809,426.84189 a 38.888168,42.197796 0 0 1 -38.80271,42.19769 38.888168,42.197796 0 0 1 -38.97325,-42.01222 38.888168,42.197796 0 0 1 38.63141,-42.38235 38.888168,42.197796 0 0 1 39.14305,41.82594"
       sodipodi:open="true" />
    <path
       style="fill:#33cc33;fill-opacity:1;fill-rule:evenodd;stroke:#000000;stroke-width:0;stroke-linecap:butt;stroke-linejoin:miter;stroke-miterlimit:4;stroke-dasharray:none;stroke-opacity:1"
       id="path4700-3"
       sodipodi:type="arc"
       sodipodi:cx="472.15921"
       sodipodi:cy="615.50128"
       sodipodi:rx="62.055584"
       sodipodi:ry="59.573353"
       sodipodi:start="0"
       sodipodi:end="6.2743948"
       d="m 534.21479,615.50128 a 62.055584,59.573353 0 0 1 -61.9192,59.57321 62.055584,59.573353 0 0 1 -62.19136,-59.31137 62.055584,59.573353 0 0 1 61.64586,-59.8339 62.055584,59.573353 0 0 1 62.46231,59.04839"
       sodipodi:open="true" />
    <path
       style="fill:#33cc33;fill-opacity:1;fill-rule:evenodd;stroke:#000000;stroke-width:0;stroke-linecap:butt;stroke-linejoin:miter;stroke-miterlimit:4;stroke-dasharray:none;stroke-opacity:1"
       id="path4700-9"
       sodipodi:type="arc"
       sodipodi:cx="399.17102"
       sodipodi:cy="735.73285"
       sodipodi:rx="28.13187"
       sodipodi:ry="30.614092"
       sodipodi:start="0"
       sodipodi:end="6.2743948"
       d="m 427.30289,735.73285 a 28.13187,30.614092 0 0 1 -28.07005,30.61402 28.13187,30.614092 0 0 1 -28.19342,-30.47946 28.13187,30.614092 0 0 1 27.94613,-30.74799 28.13187,30.614092 0 0 1 28.31625,30.34432"
       sodipodi:open="true" />
    <path
       style="fill:#33cc33;fill-opacity:1;fill-rule:evenodd;stroke:#000000;stroke-width:0;stroke-linecap:butt;stroke-linejoin:miter;stroke-miterlimit:4;stroke-dasharray:none;stroke-opacity:1"
       id="path4700-42"
       sodipodi:type="arc"
       sodipodi:cx="201.88753"
       sodipodi:cy="681.68341"
       sodipodi:rx="28.13187"
       sodipodi:ry="30.614092"
       sodipodi:start="0"
       sodipodi:end="6.2743948"
       d="m 230.0194,681.68341 a 28.13187,30.614092 0 0 1 -28.07005,30.61402 28.13187,30.614092 0 0 1 -28.19342,-30.47946 28.13187,30.614092 0 0 1 27.94613,-30.74799 28.13187,30.614092 0 0 1 28.31625,30.34432"
       sodipodi:open="true" />
    <path
       style="fill:#33cc33;fill-opacity:1;fill-rule:evenodd;stroke:#000000;stroke-width:0;stroke-linecap:butt;stroke-linejoin:miter;stroke-miterlimit:4;stroke-dasharray:none;stroke-opacity:1"
       id="path4700-87"
       sodipodi:type="arc"
       sodipodi:cx="282.83606"
       sodipodi:cy="749.76093"
       sodipodi:rx="21.512609"
       sodipodi:ry="23.167423"
       sodipodi:start="0"
       sodipodi:end="6.2743948"
       d="m 304.34867,749.76093 a 21.512609,23.167423 0 0 1 -21.46533,23.16736 21.512609,23.167423 0 0 1 -21.55968,-23.06554 21.512609,23.167423 0 0 1 21.37057,-23.26874 21.512609,23.167423 0 0 1 21.65361,22.96326"
       sodipodi:open="true" />
    <path
       style="fill:#33cc33;fill-opacity:1;fill-rule:evenodd;stroke:#000000;stroke-width:0;stroke-linecap:butt;stroke-linejoin:miter;stroke-miterlimit:4;stroke-dasharray:none;stroke-opacity:1"
       id="path4700-1"
       sodipodi:type="arc"
       sodipodi:cx="402.61804"
       sodipodi:cy="515.85352"
       sodipodi:rx="31.640642"
       sodipodi:ry="30.166025"
       sodipodi:start="0"
       sodipodi:end="6.2743948"
       d="m 434.25868,515.85352 a 31.640642,30.166025 0 0 1 -31.5711,30.16595 31.640642,30.166025 0 0 1 -31.70987,-30.03337 31.640642,30.166025 0 0 1 31.43173,-30.29795 31.640642,30.166025 0 0 1 31.84802,29.90019"
       sodipodi:open="true" />
    <path
       style="fill:none;fill-rule:evenodd;stroke:#000000;stroke-width:0;stroke-linecap:butt;stroke-linejoin:miter;stroke-opacity:1;stroke-miterlimit:4;stroke-dasharray:none"
       d="m 105.26316,576.92361 77.19298,-77.19298 64.91228,75.43859 59.64912,-73.68421 59.64913,63.1579 70.17544,-73.68421 47.36842,64.91228 33.33333,-63.1579 54.38596,49.12281 3.50878,-12.2807 0,0"
       id="path4836"
       inkscape:connector-curvature="0" />
    <path
       style="fill:none;fill-rule:evenodd;stroke:#000000;stroke-width:9;stroke-linecap:butt;stroke-linejoin:miter;stroke-opacity:1;stroke-miterlimit:4;stroke-dasharray:none"
       d="m 103.50877,599.73063 47.36842,-63.1579 0,0 0,0 0,0 0,0 0,0 0,0 52.63158,49.12281 0,0 42.10527,-57.89474 0,0"
       id="path4838"
       inkscape:connector-curvature="0" />
  </g>
</svg>
